<svg id="Layer_1" data-name="Layer 1" xmlns="http://www.w3.org/2000/svg" viewBox="0 0 500 500"><path fill="currentColor" class="currentColor" fill-rule="evenodd" d="M455.13,475.46,372.69,188.65A10.55,10.55,0,0,0,372,187C436.9,118.17,500,37.08,500,13.66A13.2,13.2,0,0,0,496.28,4c-5.17-5.2-13.86-13.85-82.81,38.69C382,66.71,346.68,96.92,313.34,128.34a9.3,9.3,0,0,0-1.76-.74l-287-82.38L2.71,67.05A9.29,9.29,0,0,0,4,81.27L215.28,227,120,337.6,51.61,323.91,32.07,343.44a9.26,9.26,0,0,0,2.43,14.87L106,394.06l35.81,71.5a8.75,8.75,0,0,0,1.73,2.4,9.52,9.52,0,0,0,5.07,2.6,9.28,9.28,0,0,0,8.05-2.6l19.54-19.53-13.36-66.74a13,13,0,0,0-.44-1.52l110.85-95.28L419.05,496a9.33,9.33,0,0,0,6.79,4,9.21,9.21,0,0,0,7.44-2.67Z"/></svg>
