<?xml version="1.0" encoding="iso-8859-1"?>
<svg xmlns="http://www.w3.org/2000/svg" id="airport" viewBox="0 0 30 30" width="100%" height="100%">
  <path fill="currentColor" class="currentColor" fill-rule="evenodd"
    d="M27.277 28.53l-4.942-17.204a.198.198 0 0 0-.053-.105C26.178 7.09 29.944 2.227 29.944.815c0-.288-.131-.47-.236-.576-.314-.313-.836-.836-4.968 2.328a76.66 76.66 0 0 0-6.014 5.15c-.026-.026-.078-.026-.104-.052L1.469 2.723.162 4.031a.553.553 0 0 0-.157.444.68.68 0 0 0 .235.419l12.656 8.733-5.727 6.615-4.105-.81-1.176 1.176a.551.551 0 0 0-.157.47c.026.184.13.34.287.42l4.289 2.143L8.45 27.93c.026.053.052.105.104.157.079.079.183.13.314.157.183.026.366-.026.47-.157l1.177-1.176-.81-4c0-.027-.026-.053-.026-.08l6.693-5.726 8.733 12.656c.105.13.236.235.419.235a.553.553 0 0 0 .444-.157l1.308-1.307z">
  </path>
</svg>
