<svg id="Layer_1" data-name="Layer 1" xmlns="http://www.w3.org/2000/svg" viewBox="0 0 500 500"><defs><style>.cls-1{fill:#008ccc;}.cls-2{fill:#fff;}</style></defs><path class="cls-1" d="M250,480.34C122.89,480.34,19.65,377,19.65,250S122.89,19.6,250,19.6,480.34,123,480.34,250,377,480.34,250,480.34"/><path class="cls-2" d="M250,39.31c116.21,0,210.72,94.58,210.72,210.69S366.18,460.74,250,460.74,39.26,366.22,39.26,250,133.72,39.31,250,39.31M250,0C112.13,0,0,112.19,0,250S112.13,500,250,500,500,387.86,500,250,387.87,0,250,0"/><path class="cls-2" d="M167.49,379.39V120.55h97.23c50.23,0,77.78,25.83,77.78,64v5.65c0,26.19-14.17,46.37-36.8,54.47,26.55,4.92,44.59,27.24,44.59,58.72V308c0,41.72-31.1,71.42-85.89,71.42ZM292.63,193.06c0-23-15.84-29.38-43.81-29.38H218.45v62.64H252c29.33,0,40.62-12,40.62-29.39Zm-41,141.42c32.51,0,47.73-7.79,47.73-33.93-.37-25.09-15.9-33.61-41-33.61H218.45v67.54Z"/></svg>