<svg id="Layer_1" data-name="Layer 1" xmlns="http://www.w3.org/2000/svg" viewBox="0 0 500 500"><defs><style>.cls-1{fill:#722a8f;}.cls-2{fill:#fff;}</style></defs><path class="cls-1" d="M250,480.36C123,480.36,19.66,377,19.66,250S123,19.64,250,19.64,480.36,123,480.36,250,377,480.36,250,480.36"/><path class="cls-2" d="M250,39.3c116.19,0,210.72,94.55,210.72,210.69S366.19,460.74,250,460.74,39.3,366.19,39.3,250,133.81,39.3,250,39.3M250,0C112.13,0,0,112.17,0,250S112.13,500,250,500,500,387.87,500,250,387.83,0,250,0"/><path class="cls-2" d="M236.35,375.45c-39.56-4.77-63.68-25.58-70.8-61.08-2.33-11.6-2.56-18.61-2.29-68,.23-45.2.3-47.37,1.54-53.91,1.47-7.76,5.06-19,7.86-24.56,11.11-22.17,30.81-36.49,57.23-41.59,19.19-3.71,41.94-2.6,58.16,2.84a71.29,71.29,0,0,1,42.06,36.36c2.4,4.79,6,15.09,6.62,18.89.5,3.13-.86,6.46-3.11,7.62-2.9,1.49-31.25,9.94-33.37,9.94-3.46,0-5.3-1.41-6.68-5.08a25.11,25.11,0,0,1-1.24-4,49.29,49.29,0,0,0-2.66-6.29,28.65,28.65,0,0,0-7-9.93c-7-6.91-13.92-9.62-26.38-10.31q-16.5-.9-27.79,7.59c-8.76,6.58-14.12,16.86-16.24,31.2-.76,5.09-.92,13.11-.91,45.45,0,44.24.31,48,4.29,58,3.4,8.59,10,16.47,16.85,20.07s11.5,4.67,21.13,4.67c9.81,0,13.07-.61,19.66-3.73a27.71,27.71,0,0,0,8.65-6.34c4.73-4.78,7.27-9.15,10.38-17.89,2.29-6.43,3.54-7.88,7.29-8.49,1.82-.3,4.56.61,17.25,5.74,18.26,7.38,18,7.25,19,9.56.66,1.6.59,2.51-.53,6.71-6.19,23.14-27.12,44.42-51.71,52.56-10.05,3.32-14.9,4-29.35,4.23-7.37.11-15.41,0-17.87-.34Z"/></svg>