<svg id="Layer_1" data-name="Layer 1" xmlns="http://www.w3.org/2000/svg" viewBox="0 0 500 500"><defs><style>.cls-1{fill:#5ab031;}.cls-2{fill:#fff;}</style></defs><path class="cls-1" d="M250,12.3C118.9,12.3,12.29,118.9,12.29,250S118.9,487.74,250,487.74,487.71,381.09,487.71,250,381.08,12.3,250,12.3"/><path class="cls-2" d="M250,39.35c116.17,0,210.69,94.47,210.69,210.66S366.17,460.67,250,460.67,39.31,366.15,39.31,250,133.83,39.35,250,39.35M250,0C112.16,0,0,112.2,0,250S112.16,500,250,500,500,387.85,500,250,387.84,0,250,0"/><path class="cls-2" d="M180.31,380.43a5.72,5.72,0,0,1-2.53-1.57c-.59-.8-.74-27.77-.74-130.41V119.06l71.42.17,71.43.17,1.54,1.44,1.53,1.45v39L321.53,163l-1.44,1.67-45.91.17-45.92.17v68.44h41.65c22.9,0,42.08.16,42.61.37,2.46.95,2.7,2.89,2.7,21.9v18.15l-1.44,1.67-1.43,1.67-42,.17-42,.17-.17,50.28L228,378.09l-1.36,1.36-1.36,1.35-21.57.13c-11.87,0-22.38-.13-23.36-.43Z"/></svg>