<svg id="Layer_1" data-name="Layer 1" xmlns="http://www.w3.org/2000/svg" xmlns:xlink="http://www.w3.org/1999/xlink" viewBox="0 0 500 500"><defs><style>.cls-1{fill:none;}.cls-2{fill:#833134;}.cls-3{clip-path:url(#clip-path);}.cls-4{fill:#737172;}.cls-5{fill:#fff;}</style><clipPath id="clip-path"><path class="cls-1" d="M79.08,16.85C44.73,16.85,16.76,45,16.76,79.62V420.37c0,34.61,28,62.73,62.32,62.73H420.89c34.37,0,62.33-28.12,62.33-62.73V79.62c0-34.61-28-62.77-62.33-62.77Z"/></clipPath></defs><path class="cls-2" d="M79.08,483.12c-34.36,0-62.31-28.16-62.31-62.75V79.63c0-34.61,28-62.76,62.31-62.76h341.8c34.36,0,62.32,28.15,62.32,62.76V420.37c0,34.59-28,62.75-62.32,62.75Z"/><g class="cls-3"><path class="cls-4" d="M79.08,368.83c-39.43,0-71.48-32.27-71.48-71.92V79.62C7.6,40,39.65,7.7,79.08,7.7h341.8c39.42,0,71.51,32.25,71.51,71.92V296.91c0,39.65-32.09,71.92-71.51,71.92Z"/><path class="cls-5" d="M420.88-1.49H79.08C34.59-1.49-1.58,34.9-1.58,79.63V296.92c0,44.71,36.17,81.09,80.66,81.09h341.8c44.49,0,80.66-36.38,80.66-81.09V79.63c0-44.73-36.17-81.12-80.66-81.12m0,18.36c34.36,0,62.32,28.15,62.32,62.76V296.92c0,34.6-28,62.75-62.32,62.75H79.08c-34.36,0-62.32-28.15-62.32-62.75V79.63c0-34.61,28-62.76,62.32-62.76Z"/></g><path class="cls-5" d="M417.63,37.42a45.06,45.06,0,0,1,44.9,44.93V417.58a45,45,0,0,1-44.9,44.93H82.37a45,45,0,0,1-44.9-44.93V82.35a45.06,45.06,0,0,1,44.9-44.93H417.63m0-37.42H82.37A82.46,82.46,0,0,0,0,82.35V417.58A82.47,82.47,0,0,0,82.37,500H417.63A82.47,82.47,0,0,0,500,417.58V82.35A82.46,82.46,0,0,0,417.63,0"/><path class="cls-5" d="M72.58,224.84a1.21,1.21,0,0,1-1.2-1.27V160.2a1.21,1.21,0,0,1,1.2-1.25H83.11a1.2,1.2,0,0,1,1.24,1.25v63.37a1.17,1.17,0,0,1-1.24,1.27Z"/><path class="cls-5" d="M128.89,224.84c-.93,0-1.46-.45-1.46-1.27V193c0-3.59-.73-8.1-6.84-8.1-5.68,0-8.81,4.06-10.53,7.65v31a1.19,1.19,0,0,1-1.27,1.27h-10a1.21,1.21,0,0,1-1.34-1.27V176.85a1.17,1.17,0,0,1,1.27-1.24h9.71a1.17,1.17,0,0,1,1.27,1.24v5.68c3.07-3.52,8.46-7.92,16.12-7.92,9.45,0,14.19,6.83,14.19,14.93v34a1.19,1.19,0,0,1-1.33,1.27Z"/><path class="cls-5" d="M172.9,224.84c-8.85,0-16.57-3.51-16.57-14.67V187.48h-5.67a1.19,1.19,0,0,1-1.15-1.26v-7.65a1.16,1.16,0,0,1,1.15-1.17h5.67V166.34a1.22,1.22,0,0,1,1.18-1.28h9.81a1.23,1.23,0,0,1,1.25,1.28V177.4h8.92a1.1,1.1,0,0,1,1.08,1.17v7.65a1.18,1.18,0,0,1-1.27,1.26h-8.38v20.33c0,5.23,1.18,6.76,6.77,6.76h2.68a1.12,1.12,0,0,1,1.19,1.18v7.82c0,.64-.26,1.27-1.46,1.27Z"/><path class="cls-5" d="M218.68,193.51c0-3.69-1.34-8.63-8.54-8.63-6.66,0-8.3,4.94-8.3,9.63v1.61h16.84Zm10.18,18.9a1.7,1.7,0,0,1,.8,2.7c-3.59,7.2-10.64,10.81-19.25,10.81-14,0-21-7.66-21-19.72V194.94c0-12.77,8.28-20.33,20.78-20.33,12.88,0,20.45,6.48,20.45,21.61v6.21a2.11,2.11,0,0,1-2.33,2.24H201.84v2c0,5.4,2.26,9,8.57,9a9.78,9.78,0,0,0,9.35-5.66c.45-1,1.1-1.45,2.44-.82Z"/><path class="cls-5" d="M243.26,224.84a1.24,1.24,0,0,1-1.19-1.27V176.85a1.19,1.19,0,0,1,1.28-1.24H253a1.23,1.23,0,0,1,1.35,1.34v7.11c2.94-5.4,7.39-9.45,15.11-9.45,1.53,0,1.53.9,1.46,1.53l-1.46,9.18a1.4,1.4,0,0,1-1.61,1.17c-.56,0-1.53-.18-2.71-.18-5.86,0-9.27,4.68-10.46,8.65v28.61a1.19,1.19,0,0,1-1.13,1.27Z"/><path class="cls-5" d="M316.33,211.78c1.19.55,1.79,1,1.35,2.25-2.7,7.2-8.74,11.89-18.92,11.89-12.13,0-20.86-6.48-20.86-19.72V194.41c0-13.14,9.8-19.8,20.79-19.8,10.25,0,17.37,5.3,19.36,15.3a1.37,1.37,0,0,1-1.19,1.79l-8.12,2.08c-.95.26-1.86.35-2.13-1-.73-4.13-2.25-7.91-7.92-7.91-4.87,0-8.2,2.78-8.2,10.25V206.2c0,6.75,3.33,9.45,8.65,9.45,5.59,0,7.28-3.69,8.19-6.48.46-1.43,1.27-1.43,2.34-.79Z"/><path class="cls-5" d="M330.46,224.84c-.88,0-1.41-.37-1.41-1.27V177.13a1.41,1.41,0,0,1,1.41-1.52h9.72a1.51,1.51,0,0,1,1.46,1.52v46.44c0,1.08-.72,1.27-1.46,1.27Zm0-55.54c-.8,0-1.41-.63-1.41-1.7V159a1.45,1.45,0,0,1,1.41-1.63h9.65a1.5,1.5,0,0,1,1.53,1.63v8.65a1.57,1.57,0,0,1-1.53,1.7Z"/><path class="cls-5" d="M374.52,224.84c-8.85,0-16.57-3.51-16.57-14.67V187.48h-5.67a1.19,1.19,0,0,1-1.15-1.26v-7.65a1.16,1.16,0,0,1,1.15-1.17H358V166.34a1.22,1.22,0,0,1,1.17-1.28h9.82a1.25,1.25,0,0,1,1.26,1.28V177.4h8.9a1.1,1.1,0,0,1,1.08,1.17v7.65a1.18,1.18,0,0,1-1.26,1.26h-8.38v20.33c0,5.23,1.18,6.76,6.77,6.76H380a1.13,1.13,0,0,1,1.19,1.18v7.82c0,.64-.27,1.27-1.46,1.27Z"/><path class="cls-5" d="M394.5,237.18c-.73-1-1.11-1.9.27-2.53,4.67-2.42,7.92-4.68,10.6-10.71l-16.65-47.17a.78.78,0,0,1,.72-1.16h12c.53,0,.8.26,1.08,1l9.71,33.66,10-33.56c.19-.63.54-1.08,1.08-1.08H434.2c.8,0,1,.53.68,1.16L418,223.49c-4,11.16-9.8,16.48-16,20.43-1.26.72-2.17.72-2.72-.08Z"/></svg>