<svg id="Layer_1" data-name="Layer 1" xmlns="http://www.w3.org/2000/svg" viewBox="0 0 500 500"><defs><style>.cls-1{fill:#e62a32;}.cls-2{fill:#fff;}</style></defs><path class="cls-1" d="M250,480.29C123,480.29,19.66,377,19.66,250S123,19.6,250,19.6,480.35,122.91,480.35,250,377.05,480.29,250,480.29"/><path class="cls-2" d="M250,0C112.18,0,0,112.14,0,250S112.18,500,250,500,500,387.81,500,250,387.87,0,250,0m0,39.26c116.2,0,210.66,94.52,210.66,210.69S366.23,460.74,250,460.74,39.31,366.22,39.31,250,133.82,39.26,250,39.26"/><path class="cls-2" d="M181.29,379.42V125.18a4.7,4.7,0,0,1,4.6-4.6h41.66a4.68,4.68,0,0,1,4.65,4.6V334.51H334c3.45,0,4.91,2.14,4.91,6V374.4a4.76,4.76,0,0,1-4.54,5Z"/></svg>