<svg id="Layer_1" data-name="Layer 1" xmlns="http://www.w3.org/2000/svg" viewBox="0 0 500 500"><defs><style>.cls-1{fill:#009499;}.cls-2{fill:#fff;}</style></defs><path class="cls-1" d="M250,12.3C118.9,12.3,12.29,118.9,12.29,250S118.9,487.74,250,487.74,487.71,381.09,487.71,250,381.08,12.3,250,12.3"/><path class="cls-2" d="M329,374.82a4.39,4.39,0,0,1-4.43-4.76V219.84c0-14.93,2.05-33.69,3.06-44.58h-1L271.78,370.71c-.65,2-2,4.11-5.08,4.11H227.53c-3.06,0-4.08-1.71-4.76-3.74L172,175.26c-.35-.68-.35-1.35-.7-2,1,12.59,3.08,27.94,3.08,46V370.06a4.58,4.58,0,0,1-4.41,4.76H135.25a4.62,4.62,0,0,1-4.44-4.76V130.64c0-2.34,1.36-5.11,4.76-5.11h58.58c2.38,0,4.1,1,5.11,3.78l35.08,123.28c6.81,24.19,12.95,54.46,15.33,78.65,2.05-24.19,9.19-53.83,16.68-79.38,10.87-34.75,20.76-69.09,31.32-103.85,1.71-6.11,3.76-12.61,5.46-18.7,2.06-5.76,16-3.78,24.17-3.78h37.14c3.38,0,4.76,2,4.76,4.45V370.06c0,3.05-2.06,4.76-4.09,4.76Z"/><path class="cls-2" d="M250,39.35c116.17,0,210.69,94.47,210.69,210.66S366.17,460.67,250,460.67,39.31,366.15,39.31,250,133.83,39.35,250,39.35M250,0C112.16,0,0,112.2,0,250S112.16,500,250,500,500,387.85,500,250,387.84,0,250,0"/></svg>