<svg id="Layer_1" data-name="Layer 1" xmlns="http://www.w3.org/2000/svg" viewBox="0 0 500 500"><defs><style>.cls-1{fill:#f5881f;}.cls-2{fill:#fff;}</style></defs><path class="cls-1" d="M250,480.36C123,480.36,19.66,377,19.66,250S123,19.64,250,19.64,480.36,123,480.36,250,377,480.36,250,480.36"/><path class="cls-2" d="M250,39.3c116.19,0,210.72,94.55,210.72,210.69S366.19,460.74,250,460.74,39.3,366.19,39.3,250,133.81,39.3,250,39.3M250,0C112.13,0,0,112.17,0,250S112.13,500,250,500,500,387.87,500,250,387.83,0,250,0"/><path class="cls-2" d="M228.91,389.7a5,5,0,0,1-4.59-4.93V175.48H156.07c-3.17,0-4.58-3.2-4.58-5.36V135.89c0-2.14,1.41-5,4.58-5H343.83c3.17,0,4.6,2.83,4.6,5v34.23c0,2.16-1.43,5.36-4.6,5.36H275.58V384.77a4.8,4.8,0,0,1-4.95,4.93H228.91"/></svg>