<svg id="Layer_1" data-name="Layer 1" xmlns="http://www.w3.org/2000/svg" viewBox="0 0 500 500"><defs><style>.cls-1{fill:#f89c1c;}.cls-2{fill:#fff;}</style></defs><path class="cls-1" d="M82.4,481.27a63.74,63.74,0,0,1-63.64-63.66V82.36A63.68,63.68,0,0,1,82.4,18.78H417.67a63.69,63.69,0,0,1,63.64,63.58V417.61a63.75,63.75,0,0,1-63.64,63.66Z"/><path class="cls-2" d="M417.63,37.46a45.06,45.06,0,0,1,44.9,44.91V417.59a45,45,0,0,1-44.9,44.92H82.37a45,45,0,0,1-44.9-44.92V82.37a45.06,45.06,0,0,1,44.9-44.91H417.63m0-37.46H82.37A82.49,82.49,0,0,0,0,82.37V417.59A82.47,82.47,0,0,0,82.37,500H417.63A82.47,82.47,0,0,0,500,417.59V82.37A82.49,82.49,0,0,0,417.63,0"/><path class="cls-2" d="M152.59,362.42a4.28,4.28,0,0,1-4-4.31V176.28H88.86c-2.82,0-4.06-2.78-4.06-4.64V141.87a4.12,4.12,0,0,1,4.06-4.29H253.21a4.16,4.16,0,0,1,4.06,4.29v29.77c0,1.86-1.31,4.64-4.06,4.64H193.46V358.11a4.14,4.14,0,0,1-4.36,4.31Z"/><path class="cls-2" d="M295.22,362.42a4.17,4.17,0,0,1-4.36-4.31v-30.7a4.15,4.15,0,0,1,4-4h37.44V192.56l-38.37,2.8c-4.27.28-5.86-1.89-6.16-4.62l-1.85-22.16c-.37-2.77.28-4.92,3.39-5.83,8.33-2.15,38-7.74,47.7-13.48,4.62-2.8,8.64-8.61,9.87-11.69h30v185.8h34.41a3.91,3.91,0,0,1,4,4v30.7c0,2.17-1.22,4.31-4,4.31Z"/></svg>