<svg id="Layer_1" data-name="Layer 1" xmlns="http://www.w3.org/2000/svg" viewBox="0 0 500 500"><defs><style>.cls-1{fill:#f89c1c;}.cls-2{fill:#fff;}</style></defs><path class="cls-1" d="M68.79,500A68.9,68.9,0,0,1,0,431.18V68.74A68.85,68.85,0,0,1,68.79,0H431.21A68.86,68.86,0,0,1,500,68.74V431.18A68.91,68.91,0,0,1,431.21,500Z"/><path class="cls-2" d="M144.67,371.52a4.63,4.63,0,0,1-4.31-4.67V170.28H75.78c-3,0-4.39-3-4.39-5V133.08a4.45,4.45,0,0,1,4.39-4.64H253.43a4.5,4.5,0,0,1,4.39,4.64v32.18c0,2-1.41,5-4.39,5H188.85V366.85a4.49,4.49,0,0,1-4.72,4.67Z"/><path class="cls-2" d="M298.84,371.52a4.52,4.52,0,0,1-4.71-4.67V333.67a4.5,4.5,0,0,1,4.31-4.37h40.47V187.88l-41.48,3c-4.61.3-6.33-2-6.65-5l-2-23.95c-.4-3,.31-5.33,3.66-6.31,9-2.32,41.1-8.37,51.57-14.57,5-3,9.33-9.31,10.66-12.64H387.1V329.3h37.2a4.24,4.24,0,0,1,4.29,4.37v33.18c0,2.35-1.32,4.67-4.29,4.67Z"/></svg>