<svg id="Layer_1" data-name="Layer 1" xmlns="http://www.w3.org/2000/svg" viewBox="0 0 500 500"><defs><style>.cls-1{fill:#0097cc;}.cls-2{fill:#fff;}</style></defs><path class="cls-1" d="M84.54,479.9a64.52,64.52,0,0,1-64.45-64.47V84.57A64.55,64.55,0,0,1,84.54,20.09H415.46a64.55,64.55,0,0,1,64.45,64.48V415.43a64.52,64.52,0,0,1-64.45,64.47Z"/><path class="cls-2" d="M415.46,40.24a44.45,44.45,0,0,1,44.35,44.29v331a44.5,44.5,0,0,1-44.35,44.32H84.54a44.48,44.48,0,0,1-44.32-44.32v-331A44.43,44.43,0,0,1,84.54,40.24H415.46m0-40.24H84.54A84.65,84.65,0,0,0,0,84.53v331A84.62,84.62,0,0,0,84.54,500H415.46A84.62,84.62,0,0,0,500,415.49v-331A84.65,84.65,0,0,0,415.46,0"/><path class="cls-2" d="M148.27,362.86a4.32,4.32,0,0,1-3.94-4.29V179.07H85.26c-2.7,0-3.92-2.75-3.92-4.48V145.11a4.08,4.08,0,0,1,3.92-4.25H247.53a4.09,4.09,0,0,1,4,4.25v29.48c0,1.73-1.22,4.48-4,4.48H188.6v179.5a4.17,4.17,0,0,1-4.31,4.29Z"/><path class="cls-2" d="M260.36,362.86V341.65c0-45.23,11-73.45,70-97.36,32-13,43.62-24.28,43.62-40,0-14.58-5.81-28.85-30.86-28.85-26.27,0-36.07,14.6-40.57,27.87-1.31,3.94-3.71,7.05-8.26,5.79l-25.7-9.68c-2.73-1.26-6.07-2.69-4.32-7.93,11.69-33.31,42.5-54.31,78.85-54.31,54.7,0,75.48,28.6,75.48,67.11,0,34.27-21.71,54.26-66.6,73.08-44.6,18.83-45.83,27.3-45.83,44.56v2.45h106a4,4,0,0,1,4.27,4.24v30a4,4,0,0,1-4.27,4.29Z"/></svg>