<svg id="Layer_1" data-name="Layer 1" xmlns="http://www.w3.org/2000/svg" viewBox="0 0 500 500"><defs><style>.cls-1{fill:#0097cc;}.cls-2{fill:#fff;}</style></defs><path class="cls-1" d="M70.08,500A70.17,70.17,0,0,1,0,429.89V70.11A70.18,70.18,0,0,1,70.08,0H429.92A70.18,70.18,0,0,1,500,70.11V429.89A70.17,70.17,0,0,1,429.92,500Z"/><path class="cls-2" d="M139.38,372.73a4.7,4.7,0,0,1-4.28-4.67V172.87H70.87c-2.94,0-4.26-3-4.26-4.87V135.94c0-1.93,1.32-4.61,4.26-4.61H247.31a4.44,4.44,0,0,1,4.34,4.61V168c0,1.88-1.32,4.87-4.34,4.87H183.24V368.06a4.54,4.54,0,0,1-4.69,4.67Z"/><path class="cls-2" d="M261.26,372.73V349.67c0-49.18,11.95-79.87,76.15-105.87,34.8-14.18,47.43-26.41,47.43-43.53,0-15.85-6.31-31.38-33.56-31.38-28.56,0-39.21,15.88-44.11,30.31-1.42,4.29-4,7.66-9,6.29L270.24,195c-3-1.37-6.59-2.92-4.69-8.63,12.71-36.22,46.21-59,85.73-59,59.49,0,82.09,31.1,82.09,73,0,37.26-23.62,59-72.42,79.47-48.5,20.47-49.84,29.68-49.84,48.45v2.66H426.34a4.3,4.3,0,0,1,4.64,4.62v32.59a4.35,4.35,0,0,1-4.64,4.67Z"/></svg>