<svg id="Layer_1" data-name="Layer 1" xmlns="http://www.w3.org/2000/svg" viewBox="0 0 500 500"><defs><style>.cls-1{fill:#f26f21;}.cls-2{fill:#fff;}</style></defs><path class="cls-1" d="M82.4,481.26A63.78,63.78,0,0,1,18.73,417.6V82.34A63.73,63.73,0,0,1,82.4,18.73H417.67a63.72,63.72,0,0,1,63.64,63.61V417.6a63.76,63.76,0,0,1-63.64,63.66Z"/><path class="cls-2" d="M417.63,37.42a45.06,45.06,0,0,1,44.9,44.93V417.58a45,45,0,0,1-44.9,44.91H82.37a45,45,0,0,1-44.9-44.91V82.35a45.06,45.06,0,0,1,44.9-44.93H417.63m0-37.42H82.37A82.46,82.46,0,0,0,0,82.35V417.58A82.49,82.49,0,0,0,82.37,500H417.63A82.49,82.49,0,0,0,500,417.58V82.35A82.46,82.46,0,0,0,417.63,0"/><path class="cls-2" d="M144.19,362.42a4.3,4.3,0,0,1-4-4.37V176.29H80.41c-2.77,0-4-2.82-4-4.71V141.76a4.08,4.08,0,0,1,4-4.22H244.79a4.05,4.05,0,0,1,4,4.22v29.82c0,1.89-1.21,4.71-4,4.71H185.06V358.05a4.22,4.22,0,0,1-4.33,4.37Z"/><path class="cls-2" d="M421.78,298.54c0,41.8-37.42,67.56-79.25,67.56-50.43,0-72.71-26.36-80.74-54-.88-3.64-.32-6.53,3.71-8l24.19-8.92c5.3-2.17,8.64-.23,10.18,4.32,5.9,16.26,17.68,27.64,41.75,27.64,21.33,0,35.65-11.64,35.65-29.46v-1.26c0-20.6-13.93-32-35.65-32H324c-2.5,0-3.06-1.52-3.06-3.36V231.87c0-1.87.26-3.71,3.06-3.71h17.61c20.81,0,33.13-10.45,33.13-26.36v-3.12c0-13.28-8.66-26.13-32.22-26.13-21.95,0-32.47,7.93-39.24,24.59a5.88,5.88,0,0,1-7.41,3.35l-26.06-8.6c-2.76-.94-4-3.06-2.76-7.07,10.22-34.46,39-51,75.47-51,49.86,0,76.45,24.29,76.45,61.8V199c0,23.95-14.21,41.21-33.36,47.07,19.15,5.44,36.16,22.11,36.16,48Z"/></svg>