<svg id="Layer_1" data-name="Layer 1" xmlns="http://www.w3.org/2000/svg" viewBox="0 0 500 500"><defs><style>.cls-1{fill:#f26f21;}.cls-2{fill:#fff;}</style></defs><path class="cls-1" d="M68.81,500A68.94,68.94,0,0,1,0,431.18V68.77A68.89,68.89,0,0,1,68.81,0h362.4A68.89,68.89,0,0,1,500,68.77V431.18A68.93,68.93,0,0,1,431.21,500Z"/><path class="cls-2" d="M135.61,371.53a4.65,4.65,0,0,1-4.36-4.72V170.32H66.67c-3,0-4.34-3-4.34-5.09V133a4.4,4.4,0,0,1,4.34-4.56H244.34a4.38,4.38,0,0,1,4.31,4.56v32.23c0,2-1.31,5.09-4.31,5.09H179.79V366.81a4.57,4.57,0,0,1-4.69,4.72Z"/><path class="cls-2" d="M435.65,302.48c0,45.19-40.45,73-85.66,73-54.51,0-78.59-28.49-87.27-58.37-1-3.94-.35-7.06,4-8.7l26.15-9.64c5.72-2.34,9.33-.25,11,4.67C310.25,321,323,333.34,349,333.34c23.05,0,38.53-12.58,38.53-31.85v-1.36c0-22.27-15.05-34.57-38.53-34.57H330c-2.7,0-3.3-1.64-3.3-3.63V230.41c0-2,.28-4,3.3-4h19c22.49,0,35.81-11.3,35.81-28.5v-3.38c0-14.35-9.36-28.24-34.83-28.24-23.73,0-35.1,8.57-42.41,26.58a6.37,6.37,0,0,1-8,3.63l-28.16-9.31c-3-1-4.32-3.3-3-7.64,11-37.24,42.19-55.15,81.57-55.15,53.89,0,82.63,26.26,82.63,66.8v3.64c0,25.89-15.35,44.55-36.05,50.88,20.7,5.88,39.08,23.91,39.08,51.85Z"/></svg>