<svg id="Layer_1" data-name="Layer 1" xmlns="http://www.w3.org/2000/svg" viewBox="0 0 500 500"><defs><style>.cls-1{fill:#005ba3;}.cls-2{fill:#fff;}</style></defs><path class="cls-1" d="M82.39,481.24a63.75,63.75,0,0,1-63.66-63.65V82.36A63.72,63.72,0,0,1,82.39,18.75H417.65a63.71,63.71,0,0,1,63.64,63.61V417.59a63.74,63.74,0,0,1-63.64,63.65Z"/><path class="cls-2" d="M417.63,37.44a45.08,45.08,0,0,1,44.93,44.93V417.59a45,45,0,0,1-44.93,44.9H82.37a45,45,0,0,1-44.91-44.9V82.37A45.09,45.09,0,0,1,82.37,37.44H417.63m0-37.44H82.37A82.47,82.47,0,0,0,0,82.37V417.59A82.47,82.47,0,0,0,82.37,500H417.63A82.47,82.47,0,0,0,500,417.59V82.37A82.47,82.47,0,0,0,417.63,0"/><path class="cls-2" d="M151,365.34a4.34,4.34,0,0,1-4-4.32V179.2H87.27c-2.85,0-4-2.87-4-4.62V144.77a4.11,4.11,0,0,1,4-4.3H251.59a4.12,4.12,0,0,1,4,4.3v29.81c0,1.75-1.22,4.62-4,4.62H191.8V361a4.2,4.2,0,0,1-4.34,4.32Z"/><path class="cls-2" d="M355.74,365.11a4.08,4.08,0,0,1-4.33-4.36V318h-87.3a4.27,4.27,0,0,1-4.34-3.36L254.22,290c-.63-3.32-.3-4.55,1.29-6.68l106.77-146c1.19-1.84,3.66-3.66,6.5-2.12l23.77,20.3c3.46,1.51,2.71,5.15.89,7.72L309.6,279.32h41.81v-32.8c0-2.82,2.09-4.08,4.33-4.08H392a4,4,0,0,1,4,4.08v32.8h20.43c2.73,0,4,2.14,4,4.36v30.09a3.94,3.94,0,0,1-4,4.25H396v42.73a4.07,4.07,0,0,1-4,4.36Z"/></svg>