<svg id="Layer_1" data-name="Layer 1" xmlns="http://www.w3.org/2000/svg" viewBox="0 0 500 500"><defs><style>.cls-1{fill:#005ba3;}.cls-2{fill:#fff;}</style></defs><path class="cls-1" d="M68.81,500A68.92,68.92,0,0,1,0,431.18V68.77A68.88,68.88,0,0,1,68.81,0h362.4A68.87,68.87,0,0,1,500,68.77V431.18A68.91,68.91,0,0,1,431.21,500Z"/><path class="cls-2" d="M143,374.7a4.69,4.69,0,0,1-4.36-4.67V173.46H74.08c-3.07,0-4.36-3.11-4.36-5V136.23a4.44,4.44,0,0,1,4.36-4.64H251.7a4.44,4.44,0,0,1,4.31,4.64v32.23c0,1.89-1.31,5-4.31,5H187.07V370a4.54,4.54,0,0,1-4.69,4.67Z"/><path class="cls-2" d="M364.29,374.45a4.41,4.41,0,0,1-4.69-4.71v-46.2H265.24a4.62,4.62,0,0,1-4.69-3.64l-6-26.63c-.68-3.58-.33-4.91,1.39-7.21L371.35,128.22c1.29-2,4-4,7-2.29l25.69,21.94c3.73,1.64,2.93,5.57,1,8.34L314.41,281.7H359.6V246.24c0-3.05,2.27-4.41,4.69-4.41h39.16a4.26,4.26,0,0,1,4.36,4.41V281.7H429.9c3,0,4.29,2.32,4.29,4.72V319a4.26,4.26,0,0,1-4.29,4.59H407.81v46.2a4.4,4.4,0,0,1-4.36,4.71Z"/></svg>