<svg id="Layer_1" data-name="Layer 1" xmlns="http://www.w3.org/2000/svg" viewBox="0 0 500 500"><defs><style>.cls-1{fill:#c3248e;}.cls-2{fill:#fff;}</style></defs><path class="cls-1" d="M82.36,481.27A63.75,63.75,0,0,1,18.7,417.61V82.34A63.72,63.72,0,0,1,82.36,18.73H417.61a63.73,63.73,0,0,1,63.67,63.61V417.61a63.76,63.76,0,0,1-63.67,63.66Z"/><path class="cls-2" d="M417.63,37.44a45.06,45.06,0,0,1,44.9,44.91V417.58a45,45,0,0,1-44.9,44.93H82.37a45,45,0,0,1-44.93-44.93V82.35A45.09,45.09,0,0,1,82.37,37.44H417.63m0-37.44H82.37A82.46,82.46,0,0,0,0,82.35V417.58A82.47,82.47,0,0,0,82.37,500H417.63A82.47,82.47,0,0,0,500,417.58V82.35A82.46,82.46,0,0,0,417.63,0"/><path class="cls-2" d="M140.9,363.44a4.31,4.31,0,0,1-4-4.34V177.27H77.14c-2.78,0-4-2.8-4-4.67V142.84a4.15,4.15,0,0,1,4-4.32H241.49a4.13,4.13,0,0,1,4,4.32V172.6c0,1.87-1.24,4.67-4,4.67H181.72V359.1a4.19,4.19,0,0,1-4.34,4.34Z"/><path class="cls-2" d="M420.73,291.59c0,51.23-34.62,75.51-79.91,75.51-53.21,0-72.13-32.47-79.17-52.81-1.89-5.53,0-8,2.8-8.89l25.94-9.86a6.69,6.69,0,0,1,9,4c5.91,17.2,17.62,28.53,41.13,28.53,22.58,0,35.32-15.35,35.32-38.7v-4.24c0-23.7-12.11-37.16-35.64-37.16-14.52,0-25.6,6.11-35.3,18.4-2.12,3.08-3.94,3.39-6.14,2.17l-26-13c-2.17-1.19-3.43-1.47-3.15-6.37l8.4-110.64H402.74c2.84,0,4.06,2.1,4.06,4.31V173c0,3.08-2.15,4.62-4.06,4.62h-87.6l-4,49.78.3.3c7.14-6.46,19.81-15.35,44.54-15.35,36.88,0,64.74,23,64.74,71.29Z"/></svg>