<svg id="Layer_1" data-name="Layer 1" xmlns="http://www.w3.org/2000/svg" viewBox="0 0 500 500"><defs><style>.cls-1{fill:#c3248e;}.cls-2{fill:#fff;}</style></defs><path class="cls-1" d="M68.81,500A68.92,68.92,0,0,1,0,431.18V68.77A68.89,68.89,0,0,1,68.81,0H431.19A68.89,68.89,0,0,1,500,68.77V431.18A68.92,68.92,0,0,1,431.19,500Z"/><path class="cls-2" d="M132.09,372.63a4.66,4.66,0,0,1-4.37-4.69V171.38H63.17c-3,0-4.36-3-4.36-5V134.16a4.48,4.48,0,0,1,4.36-4.67H240.82a4.47,4.47,0,0,1,4.36,4.67v32.18c0,2-1.34,5-4.36,5H176.21V367.94a4.52,4.52,0,0,1-4.69,4.69Z"/><path class="cls-2" d="M434.55,295c0,55.38-37.42,81.63-86.36,81.63-57.52,0-78-35.1-85.58-57.09-2.05-6,0-8.6,3-9.61l28-10.66a7.22,7.22,0,0,1,9.73,4.31c6.38,18.58,19,30.84,44.46,30.84,24.41,0,38.18-16.59,38.18-41.84V288c0-25.62-13.09-40.17-38.53-40.17-15.69,0-27.67,6.61-38.16,19.9-2.29,3.33-4.26,3.66-6.63,2.34l-28.06-14c-2.35-1.29-3.71-1.59-3.41-6.89l9.08-119.6H415.11c3.08,0,4.39,2.27,4.39,4.67v32.55c0,3.33-2.32,5-4.39,5H320.42l-4.31,53.82.33.32c7.72-7,21.41-16.59,48.14-16.59,39.86,0,70,24.89,70,77.06Z"/></svg>