<svg id="Layer_1" data-name="Layer 1" xmlns="http://www.w3.org/2000/svg" viewBox="0 0 500 500"><defs><style>.cls-1{fill:#456ba9;}.cls-2{fill:#fff;}</style></defs><path class="cls-1" d="M79.13,483.13c-34.39,0-62.38-28.16-62.38-62.79V79.66c0-34.63,28-62.78,62.38-62.78h341.8c34.35,0,62.32,28.15,62.32,62.78V420.34c0,34.63-28,62.79-62.32,62.79Z"/><path class="cls-2" d="M420.93,33.75c25.05,0,45.61,20.64,45.61,45.9v340.7c0,25.26-20.56,45.92-45.61,45.92H79.13c-25,0-45.56-20.66-45.56-45.92V79.65c0-25.26,20.51-45.9,45.56-45.9h341.8m0-33.75H79.13C35.49,0,0,35.73,0,79.65v340.7C0,464.31,35.49,500,79.13,500h341.8c43.62,0,79.07-35.69,79.07-79.65V79.65C500,35.73,464.55,0,420.93,0"/><path class="cls-2" d="M141.2,362.77a4.32,4.32,0,0,1-4-4.35V177.76h-59c-2.75,0-4-2.75-4-4.54V143.59c0-1.79,1.2-4.31,4-4.31H240.35a4.07,4.07,0,0,1,4,4.31v29.63c0,1.79-1.11,4.54-4,4.54h-58.9V358.42a4.21,4.21,0,0,1-4.28,4.35Z"/><path class="cls-2" d="M423,293.18c0,40.87-31.11,73.19-79,73.19-55,0-83.14-32-83.14-79V216.26c0-45.19,29.93-80.57,83.14-80.57,50.88,0,65.9,30.2,71.69,44.88,1.55,4.22-1.22,6-4.61,7.3l-27.7,9.5c-3.45,1.12-5-.31-7.38-5.18-4.3-10.71-14.42-18.1-32-18.1-24.49,0-39.21,13.43-39.21,42.73v12l.68.27c10.4-9.45,23.85-16.57,45.52-16.57,43.06,0,72,27.84,72,73.36Zm-43.93-5.54c0-23.8-13.51-39.69-35.72-39.69-23.56,0-38.55,15.62-38.55,39.69v2.1c0,22.36,13.17,37.94,38.86,37.94,22.32,0,35.41-15.93,35.41-37.94Z"/></svg>