<svg id="Layer_1" data-name="Layer 1" xmlns="http://www.w3.org/2000/svg" viewBox="0 0 500 500"><defs><style>.cls-1{fill:#456ba9;}.cls-2{fill:#fff;}</style></defs><path class="cls-1" d="M66.86,500C30,500,0,469.81,0,432.67V67.33C0,30.19,30,0,66.86,0H433.21C470,0,500,30.19,500,67.33V432.67c0,37.14-30,67.33-66.79,67.33Z"/><path class="cls-2" d="M133.38,370.94a4.64,4.64,0,0,1-4.25-4.67V172.53H65.93c-3,0-4.24-2.95-4.24-4.87V135.89c0-1.92,1.29-4.63,4.24-4.63H239.66a4.37,4.37,0,0,1,4.3,4.63v31.77c0,1.92-1.2,4.87-4.3,4.87H176.52V366.27a4.51,4.51,0,0,1-4.58,4.67Z"/><path class="cls-2" d="M435.45,296.3c0,43.83-33.34,78.49-84.66,78.49-59,0-89.12-34.3-89.12-84.76V213.81c0-48.46,32.08-86.39,89.12-86.39,54.53,0,70.62,32.37,76.83,48.12,1.66,4.53-1.31,6.47-4.94,7.83L393,193.56c-3.7,1.2-5.32-.34-7.91-5.56-4.61-11.48-15.45-19.41-34.29-19.41-26.25,0-42,14.41-42,45.82v12.84l.73.29c11.15-10.13,25.56-17.77,48.79-17.77,46.15,0,77.17,29.86,77.17,78.67Zm-47.09-5.94c0-25.52-14.47-42.56-38.28-42.56-25.25,0-41.32,16.75-41.32,42.56v2.26c0,24,14.12,40.68,41.65,40.68,23.92,0,37.95-17.08,37.95-40.68Z"/></svg>