<svg id="Layer_1" data-name="Layer 1" xmlns="http://www.w3.org/2000/svg" viewBox="0 0 500 500"><defs><style>.cls-1{fill:#6f818d;}.cls-2{fill:#fff;}</style></defs><path class="cls-1" d="M84.52,479.88a64.51,64.51,0,0,1-64.43-64.46V84.55A64.52,64.52,0,0,1,84.52,20.07H415.46a64.52,64.52,0,0,1,64.43,64.48V415.42a64.51,64.51,0,0,1-64.43,64.46Z"/><path class="cls-2" d="M415.46,40.22a44.41,44.41,0,0,1,44.32,44.32V415.48a44.48,44.48,0,0,1-44.32,44.33H84.52a44.5,44.5,0,0,1-44.33-44.33V84.54A44.43,44.43,0,0,1,84.52,40.22H415.46m0-40.22H84.52A84.64,84.64,0,0,0,0,84.54V415.48A84.62,84.62,0,0,0,84.52,500H415.46A84.63,84.63,0,0,0,500,415.48V84.54A84.64,84.64,0,0,0,415.46,0"/><path class="cls-2" d="M147,361a4.27,4.27,0,0,1-3.94-4.3V177.16h-59c-2.75,0-4-2.66-4-4.52V143.27a4.15,4.15,0,0,1,4-4.32H246.29c2.75,0,3.92,2.52,3.92,4.32v29.37c0,1.86-1.17,4.52-3.92,4.52h-59V356.71a4.1,4.1,0,0,1-4.25,4.3Z"/><path class="cls-2" d="M302,361a4,4,0,0,1-4-4.3c0-61.21,38.21-131.54,69.4-179.17H280.58c-2.49,0-4.62-1.57-4.62-3.95V143.27a4.28,4.28,0,0,1,4.62-4.32h135a4.08,4.08,0,0,1,4.34,4.32v20c0,3.4-.66,4.64-2.8,7.62-36.7,51.25-75.19,125.79-75.19,185.85A4.08,4.08,0,0,1,338,361Z"/></svg>