<svg id="Layer_1" data-name="Layer 1" xmlns="http://www.w3.org/2000/svg" viewBox="0 0 500 500"><defs><style>.cls-1{fill:#6f818d;}.cls-2{fill:#fff;}</style></defs><path class="cls-1" d="M70.06,500A70.14,70.14,0,0,1,0,429.91V70.11A70.16,70.16,0,0,1,70.06,0H429.94A70.16,70.16,0,0,1,500,70.11v359.8A70.14,70.14,0,0,1,429.94,500Z"/><path class="cls-2" d="M138,370.74a4.65,4.65,0,0,1-4.29-4.67V170.83H69.56c-3,0-4.34-2.9-4.34-4.93V134c0-1.95,1.34-4.69,4.34-4.69H246c3,0,4.26,2.74,4.26,4.69V165.9c0,2-1.27,4.93-4.26,4.93H181.83V366.07a4.45,4.45,0,0,1-4.62,4.67Z"/><path class="cls-2" d="M306.5,370.74a4.31,4.31,0,0,1-4.33-4.67c0-66.56,41.55-143,75.46-194.84H283.27c-2.72,0-5-1.7-5-4.29V134c0-2.69,2-4.69,5-4.69H430.06a4.42,4.42,0,0,1,4.72,4.69v21.71c0,3.71-.71,5-3,8.3C391.84,219.71,350,300.75,350,366.07a4.43,4.43,0,0,1-4.28,4.67Z"/></svg>