<svg id="Layer_1" data-name="Layer 1" xmlns="http://www.w3.org/2000/svg" viewBox="0 0 500 500"><defs><style>.cls-1{fill:#00944c;}.cls-2{fill:#fff;}</style></defs><path class="cls-1" d="M82.37,481.26A63.74,63.74,0,0,1,18.73,417.6V82.32A63.71,63.71,0,0,1,82.37,18.71H417.63a63.73,63.73,0,0,1,63.66,63.61V417.6a63.75,63.75,0,0,1-63.66,63.66Z"/><path class="cls-2" d="M417.63,37.42a45.06,45.06,0,0,1,44.9,44.93V417.58a45,45,0,0,1-44.9,44.93H82.37a45,45,0,0,1-44.9-44.93V82.35a45.06,45.06,0,0,1,44.9-44.93H417.63m0-37.42H82.37A82.46,82.46,0,0,0,0,82.35V417.58A82.47,82.47,0,0,0,82.37,500H417.63A82.47,82.47,0,0,0,500,417.58V82.35A82.46,82.46,0,0,0,417.63,0"/><path class="cls-2" d="M138.48,363.85a4.41,4.41,0,0,1-4.06-4.36V174.23H74c-2.8,0-4.06-2.82-4.06-4.69V139.19A4.18,4.18,0,0,1,74,134.81H240.17a4.18,4.18,0,0,1,4.08,4.38v30.35c0,1.87-1.26,4.69-4.08,4.69H179.79V359.49a4.28,4.28,0,0,1-4.38,4.36Z"/><path class="cls-2" d="M427.19,301.28c0,43.15-33.47,66.32-87.6,66.32-54.45,0-87.92-23.17-87.92-66.32v-4.72c0-28.76,13.44-44.41,40-55.38-19.39-5.62-32.22-23.47-32.22-48.5v-3.43c0-36,26-58.18,80.11-58.18,53.82,0,79.79,22.21,79.79,58.18v3.43c0,25-12.83,42.88-32.24,48.5,26.59,11,40.05,26.62,40.05,55.38Zm-45.05-7.82c0-21.6-12.22-32.57-42.55-32.57-30.67,0-42.87,11-42.87,32.57v3.1c0,21.93,12.2,32.24,42.87,32.24,30.33,0,42.55-10.31,42.55-32.24Zm-5.94-98.59c0-20.64-10-27.52-36.61-27.52-26.92,0-36.93,6.88-36.93,27.52v1.57c0,21,12.2,29.74,36.93,29.74,24.4,0,36.61-8.77,36.61-29.74Z"/></svg>