<svg id="Layer_1" data-name="Layer 1" xmlns="http://www.w3.org/2000/svg" viewBox="0 0 500 500"><defs><style>.cls-1{fill:#00944c;}.cls-2{fill:#fff;}</style></defs><path class="cls-1" d="M68.79,500A68.9,68.9,0,0,1,0,431.18V68.77A68.88,68.88,0,0,1,68.79,0H431.18A68.9,68.9,0,0,1,500,68.77V431.18A68.92,68.92,0,0,1,431.18,500Z"/><path class="cls-2" d="M129.44,373.08a4.77,4.77,0,0,1-4.39-4.72V168.12H59.76c-3,0-4.38-3.06-4.38-5.07V130.24a4.52,4.52,0,0,1,4.38-4.74h179.6a4.52,4.52,0,0,1,4.41,4.74v32.81c0,2-1.36,5.07-4.41,5.07H174.1V368.36a4.63,4.63,0,0,1-4.74,4.72Z"/><path class="cls-2" d="M441.52,305.44c0,46.65-36.18,71.69-94.69,71.69-58.85,0-95-25-95-71.69v-5.09c0-31.09,14.53-48,43.27-59.87-20.95-6.07-34.82-25.37-34.82-52.42v-3.71c0-38.88,28.06-62.89,86.59-62.89,58.18,0,86.24,24,86.24,62.89v3.71c0,27.05-13.86,46.35-34.85,52.42,28.75,11.86,43.3,28.78,43.3,59.87ZM392.83,297c0-23.35-13.22-35.2-46-35.2-33.16,0-46.35,11.85-46.35,35.2v3.36c0,23.7,13.19,34.85,46.35,34.85,32.78,0,46-11.15,46-34.85ZM386.4,190.43c0-22.32-10.82-29.76-39.57-29.76-29.1,0-39.92,7.44-39.92,29.76v1.69c0,22.67,13.19,32.15,39.92,32.15,26.38,0,39.57-9.48,39.57-32.15Z"/></svg>