<svg id="Layer_1" data-name="Layer 1" xmlns="http://www.w3.org/2000/svg" viewBox="0 0 500 500"><defs><style>.cls-1{fill:#d01f2f;}.cls-2{fill:#fff;}</style></defs><path class="cls-1" d="M82.4,481.26A63.76,63.76,0,0,1,18.73,417.6V82.32A63.73,63.73,0,0,1,82.4,18.71H417.65a63.72,63.72,0,0,1,63.66,63.61V417.6a63.75,63.75,0,0,1-63.66,63.66Z"/><path class="cls-2" d="M417.63,37.42a45.06,45.06,0,0,1,44.9,44.93V417.58a45,45,0,0,1-44.9,44.93H82.37a45,45,0,0,1-44.9-44.93V82.35a45.06,45.06,0,0,1,44.9-44.93H417.63m0-37.42H82.37A82.46,82.46,0,0,0,0,82.35V417.58A82.47,82.47,0,0,0,82.37,500H417.63A82.47,82.47,0,0,0,500,417.58V82.35A82.46,82.46,0,0,0,417.63,0"/><path class="cls-2" d="M141.79,363.85a4.41,4.41,0,0,1-4.06-4.36V174.23H77.33c-2.8,0-4.06-2.82-4.06-4.69V139.19a4.18,4.18,0,0,1,4.06-4.38H243.48a4.18,4.18,0,0,1,4.08,4.38v30.35c0,1.87-1.26,4.69-4.08,4.69H183.11V359.49a4.28,4.28,0,0,1-4.39,4.36Z"/><path class="cls-2" d="M377,273.72c-10.31,11.27-26.59,18.15-45.37,18.15-47.87,0-76.33-31.91-76.33-76.33V207.1c0-41.64,30.65-76,83.54-76,46.61,0,83.54,25.64,83.54,75.7v76c0,65.69-44.12,84.78-83.54,84.78-40.69,0-70.11-19.09-80.42-43.81-1.89-4.37-1.26-7.52,2.2-9.06l26.89-14.09c3.46-1.23,5.32-.3,7.21,3.46,6.88,14.69,22.51,23.77,42.55,23.77,23.15,0,39.73-10.64,39.73-37.23Zm0-63.19c0-25-12.83-40.06-38.16-40.06-25.66,0-38.5,15-38.5,40.06v4.08c0,25.64,13.14,41,38.5,41s38.16-15.35,38.16-41Z"/></svg>