<svg id="Layer_1" data-name="Layer 1" xmlns="http://www.w3.org/2000/svg" viewBox="0 0 500 500"><defs><style>.cls-1{fill:#d01f2f;}.cls-2{fill:#fff;}</style></defs><path class="cls-1" d="M68.81,500A68.92,68.92,0,0,1,0,431.18V68.77A68.89,68.89,0,0,1,68.81,0H431.19A68.89,68.89,0,0,1,500,68.77V431.18A68.92,68.92,0,0,1,431.19,500Z"/><path class="cls-2" d="M133,373.08a4.77,4.77,0,0,1-4.39-4.72V168.12H63.34c-3,0-4.39-3.06-4.39-5.07V130.24a4.52,4.52,0,0,1,4.39-4.74H242.93a4.52,4.52,0,0,1,4.41,4.74v32.81c0,2-1.36,5.07-4.41,5.07H177.67V368.36a4.62,4.62,0,0,1-4.74,4.72Z"/><path class="cls-2" d="M387.26,275.66c-11.14,12.18-28.74,19.62-49,19.62-51.75,0-82.51-34.5-82.51-82.51v-9.13c0-45,33.13-82.18,90.3-82.18,50.38,0,90.3,27.71,90.3,81.83v82.2c0,71-47.69,91.64-90.3,91.64-44,0-75.77-20.63-86.92-47.36-2-4.71-1.36-8.12,2.37-9.78l29.07-15.23c3.74-1.34,5.75-.33,7.8,3.73,7.43,15.89,24.33,25.7,46,25.7,25,0,42.94-11.5,42.94-40.25Zm0-68.31c0-27.06-13.87-43.3-41.25-43.3-27.74,0-41.61,16.24-41.61,43.3v4.41c0,27.71,14.2,44.3,41.61,44.3s41.25-16.59,41.25-44.3Z"/></svg>